<svg xmlns="http://www.w3.org/2000/svg" width="106" height="225.031" viewBox="0 0 106 225.031">
  <metadata><?xpacket begin="﻿" id="W5M0MpCehiHzreSzNTczkc9d"?>
<x:xmpmeta xmlns:x="adobe:ns:meta/" x:xmptk="Adobe XMP Core 5.6-c142 79.160924, 2017/07/13-01:06:39        ">
   <rdf:RDF xmlns:rdf="http://www.w3.org/1999/02/22-rdf-syntax-ns#">
      <rdf:Description rdf:about=""/>
   </rdf:RDF>
</x:xmpmeta>
                                                                                                    
                                                                                                    
                                                                                                    
                                                                                                    
                                                                                                    
                                                                                                    
                                                                                                    
                                                                                                    
                                                                                                    
                                                                                                    
                                                                                                    
                                                                                                    
                                                                                                    
                                                                                                    
                                                                                                    
                                                                                                    
                                                                                                    
                                                                                                    
                                                                                                    
                                                                                                    
                           
<?xpacket end="w"?></metadata>
<defs>
    <style>
      .cls-1 {
        fill: #fb3737;
      }

      .cls-1, .cls-2 {
        fill-rule: evenodd;
      }

      .cls-2 {
        fill: #ffb400;
      }
    </style>
  </defs>
  <path class="cls-1" d="M355.537,316.892c-1.187-1.717-2.253-3.175-3.226-4.686-1.275-1.98-1.295-3.464.391-5.141a7.024,7.024,0,0,0,1.99-5.028c0.138-3.45.067-6.907,0.147-10.36a1.255,1.255,0,0,0-1.488-1.475c-2.61.059-3.4-1.412-4.044-3.6-1.98-6.746-2.9-13.547-1.768-20.487a48.788,48.788,0,0,1,2.07-6.756c1.174-3.675,2.584-7.3,3.476-11.034a11.93,11.93,0,0,0-2.368-10c-1.786-2.444-3.06-2.473-5.13-.252a3.555,3.555,0,0,0-.382.653l-2.539-2.278c-3.013,3.475-5.647,7.009-6.424,11.469a6.2,6.2,0,0,0,.479,2.644c0.4,1.321,1,2.592,1.317,3.927a3.4,3.4,0,0,1-.6,1.571,8.43,8.43,0,0,1-1.393-.846,24.491,24.491,0,0,1-1.7-1.914c-0.648,1.227-1.09,2.143-1.606,3.018a16.554,16.554,0,0,1-1.57,2.312,3.239,3.239,0,0,1-1.216.528,2.628,2.628,0,0,1-.307-1.218c0.547-1.684,1.205-3.336,1.855-5.082-1.338-.616-2.137.124-2.873,1a5.187,5.187,0,0,1-4.085,2.269l-0.477-.426,4.223-5.289c-1.465.2-2.594,0.341-3.721,0.5a7.485,7.485,0,0,1-1.778.238,4.1,4.1,0,0,1-1.308-.681,3.587,3.587,0,0,1,1.06-.95c5.22-1.64,8.136-5.544,9.583-10.12a42.521,42.521,0,0,1,7.541-13.838c1.336-1.676,2.46-3.505,3.86-5.522-1.654-.369-2.973-0.745-4.321-0.914a2.354,2.354,0,0,0-1.306.763c-1.039.877-1.993,1.847-3.058,2.693a8.017,8.017,0,0,1-6.807,1.987c-2.593-.478-5.294-0.4-7.917-0.772a8.883,8.883,0,0,1-3.29-1.289c-2.277-1.407-4.486-2.922-6.655-4.479-1.731-1.242-3.362-2.612-5.255-4.1l-1.837,1.231,0.733-3.387L299,210.389c0.044-.141.087-0.283,0.131-0.424,1.25-.1,2.509-0.141,3.747-0.318a1.481,1.481,0,0,0,1.419-1.787c-0.1-2.933.007-5.873,0.053-8.811a8.509,8.509,0,0,1,2.593-6.275A112.4,112.4,0,0,1,316.8,183.9c4.78-3.559,10.482-4.482,16.464-3.809a14.391,14.391,0,0,1,1.538.405l-4.282.707,3.185,1.168c-0.024.084-.047,0.169-0.071,0.253l-3.251-.54a19.857,19.857,0,0,0,6.91,6.328,4.723,4.723,0,0,0,2.413.421c1.323-.042,2.635-0.315,3.958-0.417,1.181-.091,2.035.263,1.925,1.626s0.4,2.154,2,2.262c1.555,0.1,3.032.426,2.752,2.544a1.917,1.917,0,0,0,1.149,1.28c2.2,0.87,2.467,1.4,1.615,3.521-0.884,2.2-1.75,4.411-2.547,6.642a8.238,8.238,0,0,0-.219,1.945l0.5,0.293a9.4,9.4,0,0,0,1.744-1.7,58.656,58.656,0,0,0,2.945-5.533c2.875-6.274,5.79-12.534,8.464-18.886,1.659-3.94,2.923-8.032,4.325-12.068a10.913,10.913,0,0,0,.283-1.875,4.517,4.517,0,0,0-2.824-5.24c-1.319-.628-2.568-1.391-3.849-2.093l0.189-.693,5.512,0.985c-1.114-2.687-4.545-3.744-4.31-6.7l0.652-.5c1.208,1.13,2.377,2.3,3.641,3.369a9.455,9.455,0,0,0,1.866.978,7.788,7.788,0,0,0,0-2.012c-0.345-1.331-.979-2.6-1.232-3.942-0.088-.468.6-1.068,0.931-1.608a4.033,4.033,0,0,1,1.371,1.117c0.761,1.937,1.309,3.949,2.033,5.9,1.042,2.8,1.524,2.992,4.537,2.469a51.635,51.635,0,0,1,5.38-.626,3.91,3.91,0,0,1,1.5.631,4.018,4.018,0,0,1-.959,1.348,8.417,8.417,0,0,1-2.676,1,5.653,5.653,0,0,0-4.9,4.493c-0.823,3.3-1.411,6.648-2.176,9.96-2.323,10.06-4.644,20.122-7.069,30.16-0.36,1.49-.245,2.518,1.11,3.407a13.867,13.867,0,0,1,1.782,1.642c-0.794,1.026-1.605,1.95-2.267,2.963a2.13,2.13,0,0,0,.451,2.949,59.8,59.8,0,0,1,11.892,17.641c2.086,4.627,1.683,9.591,1.715,14.486,0.079,11.986-3.594,23.287-6.875,34.663a43.014,43.014,0,0,1-1.345,4.478,3.3,3.3,0,0,1-1.65,1.493,8.556,8.556,0,0,1-2.8.65c-1.834.137-2.521,1.007-2.627,2.731-0.287,4.656-.683,9.308-1.122,13.954-0.284,3.017,1.218,5.031,3.677,6.639,1.334,0.873,2.554,1.908,3.91,2.744a7.279,7.279,0,0,0,2.178.668c1.816,0.415,3.659.733,5.451,1.22a5.2,5.2,0,0,1,1.49,1.1,4.578,4.578,0,0,1-1.458,1.1,75.869,75.869,0,0,1-8.675,1.667,285,285,0,0,1-50.3.52c-4.56-.348-9.087-1.124-13.611-1.812A12.763,12.763,0,0,1,304.3,321.2v-0.636a13.435,13.435,0,0,1,3.035-1.174c5.913-.77,11.828-1.781,17.773-2.03,9.65-.405,19.324-0.283,28.987-0.387C354.505,316.964,354.91,316.926,355.537,316.892Z" transform="translate(-299 -100)"/>
  <path class="cls-2" d="M376.979,139c1.973-10.877-2.785-17.07-13.979-20.124,10.513-2.913,16.941-8.179,16.371-18.877,6.359,8.309,13.947,11.886,25.228,7.877-6.372,7.87-8.77,15.407.4,24-6.8-.915-11.774-2.815-15.773-1.778C385.176,131.147,382.086,135.1,376.979,139Z" transform="translate(-299 -100)"/>
</svg>
